<?xml version="1.0" encoding="UTF-8"?>
<svg id="Layer_2" xmlns="http://www.w3.org/2000/svg" version="1.1" xmlns:xlink="http://www.w3.org/1999/xlink" viewBox="0 0 5000 1152.8593645">
  <!-- Generator: Adobe Illustrator 30.1.0, SVG Export Plug-In . SVG Version: 2.1.1 Build 136)  -->
  <defs>
    <style>
      .st0 {
        fill: #005cb9;
      }

      .st1 {
        fill: #666;
      }

      .st2 {
        fill: url(#linear-gradient);
      }
    </style>
    <linearGradient id="linear-gradient" x1="3715.5969383" y1="664.7757103" x2="3715.5969383" y2="0" gradientUnits="userSpaceOnUse">
      <stop offset="0" stop-color="#005cb9"/>
      <stop offset="1" stop-color="#00adef"/>
    </linearGradient>
  </defs>
  <g id="Layer_1-2">
    <path d="M312.776189,583.6083769c-134.90129,0-237.5082674-116.3619582-237.5082674-252.2030344s103.6322164-254.168027,239.4732926-254.168027c58.6935823,0,115.3367517,21.5295309,159.3355997,61.5983611l38.1038376-58.6935905C459.4674347,23.4989575,389.069317,4.8742079,321.5759456,4.8742079,143.7010466,4.8742079,0,148.5752519,0,332.3451613s142.6758402,326.5311698,315.7663881,320.6361594c60.5731546-1.9650252,137.8060362-21.5294983,196.4996511-75.267889l-38.1038376-59.6333685c-43.998848,41.0940692-101.6672238,64.5031398-161.3005597,65.5283789M810.3474613,5.8994235c-173.0051276,0-316.7061742,146.6058299-316.7061742,324.5661655s141.7360214,324.5661446,316.7061742,324.5661446,316.7061742-139.7710614,316.7061742-324.5661772c.9397862-177.874899-142.6758076-324.5661772-316.7061742-324.5661772M810.3474613,581.6434169c-130.9713048,0-241.4382852-109.4417739-241.4382852-252.2030344s99.7021986-252.2030344,241.4382852-252.2030344,241.4382852,114.3969656,241.4382852,252.2030344c0,142.6758402-110.4669804,252.2030344-241.4382852,252.2030344M2736.0440553,272.7117765l-42.9736089-17.5995294c-38.1037724-14.6947507-84.0676455-41.0940529-84.0676455-88.9374495,0-54.7635971,52.7985393-87.9976715,100.6419848-87.9976715,52.7985393,0,86.0327359,37.1640596,87.9975656,77.232906h69.3728786c-10.7648469-108.5019796-87.9975656-150.5358269-155.4056145-150.5358269-91.9277463,0-177.8749642,60.5731546-177.8749642,161.300576,0,86.9724569,62.5382124,127.0413034,131.9966091,157.3705908l42.0339531,17.5995457c51.7733655,22.4693171,104.5719048,50.8336119,104.5719048,118.2415305s-46.9035289,121.2317295-111.4068317,121.2317295c-63.5633863.9397862-116.3619256-48.8686193-117.3018421-112.431973v-5.8949778l-76.2078055,1.9649926c8.7997566,118.2415305,88.9374821,188.6396481,186.6747207,188.6396481,104.5719048,1.9650252,190.6046407-80.1376603,193.5093869-184.7096955v-8.7997566c-.9396558-103.6322164-65.5284766-152.5008032-151.4756945-186.6746718M4177.9242275,18.5437495h-86.0327359v622.6475504h75.267889v-261.002791h42.9736089c114.397096,0,212.1343346-50.8336119,212.1343346-181.8049005,0-113.3717591-57.6683759-179.8398916-244.3430966-179.8398916M4190.6541648,310.9010507h-24.4341793V88.0021054h20.5042593c74.3282332,0,164.2053711,11.7045435,164.2053711,109.4417658.9396558,97.737206-83.1279897,113.3717591-160.275451,113.3717591M4476.0910373,640.2515789h324.5660794v-71.3379038h-249.2981905v-234.6034887h242.4635243v-71.3379201h-242.4635243V89.967098h249.2981905V18.5437495h-324.5660794v621.7078294ZM3230.7105162,76.297562c58.6935497,0,115.3367517,21.5295309,159.3355345,61.5983611l38.1037724-58.6935905c-51.7733655-55.7033792-122.1714179-74.3281273-189.6649849-74.3281273-177.8749642,0-321.5758152,143.7010466-321.5758152,327.470956s142.6759379,326.5311698,315.7663229,320.6361594c60.573122-1.9650252,137.8061014-21.5294983,197.4395676-75.267889l-38.1037724-59.6333685c-43.9987828,41.0940692-101.6671587,63.5633537-161.3006249,64.5031398-134.9013552,0-237.5081697-116.3619582-237.5081697-252.2030344-.9396558-137.8060525,102.6070752-254.168027,237.5081697-254.168027M1647.0941922,19.5689641l-107.562169,300.1318757c-27.3390558,78.1726677-47.9288332,146.6058254-63.5633863,209.2294255h-2.9047462c-14.6947669-64.5031398-35.1990262-132.9362974-60.573122-209.2293929l-102.6069448-300.1318676h-99.7021986l-42.0338228,620.6825741h74.3281028l15.6345531-265.8725949c5.8950104-92.8674347,9.7395427-197.4394373,11.7045027-274.6723515h1.96496c17.5995131,74.3281354,41.0940366,153.4405893,69.3728786,241.4382852l97.7372386,295.1766107h58.6935497l106.5369952-301.0716537c30.3293201-85.0074643,55.7034159-163.2655849,76.2076751-235.5432748h2.9047462c-.9397862,77.2329142,4.8698365,181.8049168,8.7997566,267.8375875l14.6947669,272.7073263h76.2076751l-37.1641166-620.6826067h-98.7624125l.0855181.000057ZM2328.4355042,19.5689641l-107.562169,300.1318757c-27.3391862,78.1726677-47.9288332,146.6058254-63.5633863,209.2294255h-2.9047462c-14.6947669-64.5031398-36.1388124-132.9362974-60.573122-209.2293929l-103.632249-300.1318676h-99.7021986l-41.0940366,620.6825741h74.3281028l15.6345531-265.8725949c4.8698365-92.8674347,9.7395427-197.4394373,11.7045027-274.6723515h1.96496c16.659727,74.3281354,41.0940366,153.4405893,70.3981828,241.4382852l97.7372386,295.1766107h58.6935497l106.5368648-301.0716537c30.3291897-85.0074643,55.7032855-163.2655849,76.2078055-235.5432748h2.9047462c-.9396558,77.2329142,4.8698365,181.8049168,8.7997566,267.8375875l15.6344227,272.7073263h76.2078055l-38.1037724-620.6826067h-99.702329l.0855181.000057ZM4943.3330547,85.0118901h0c8.8000173-2.9047788,14.6945062-9.7395509,14.6945062-18.5393156,0-5.89499-1.9648296-11.7045435-6.8346662-16.6597514-7.85984-4.8697754-16.6598573-6.8347721-25.3738351-5.89499-9.7396731,0-18.5391689.9397821-28.36436,2.9047788v75.2679175h16.6598573v-29.304081h7.85984c9.7396731,0,13.6693324,3.9299933,14.6945062,11.7045435.9396558,5.8949859,2.9050069,12.7297581,5.8950104,17.5995376h18.5391689c-2.9050069-5.8949859-4.8698365-11.7045435-4.8698365-18.5393156-1.9648296-9.7395509-5.8950104-15.6345368-12.7296766-18.5393156M4922.7435381,80.1421187h-7.85984v-21.5295268c2.9050069-.9397821,6.8346662-.9397821,9.7396731-.9397821,10.7648469,0,15.6346835,4.8697754,15.6346835,11.7045435,0,6.8347721-7.85984,10.7647655-17.5995131,10.7647655M4926.6731974,7.8644201h0c-42.0336924,1.9649962-74.3282332,36.1388496-73.3030593,78.1726845.9396558,40.0688465,33.2341966,71.3379201,73.3030593,73.3029127,42.0336924-1.9649926,74.3282332-36.138845,73.3030593-78.172684-1.9648296-40.0688424-33.2341966-72.3631347-73.3030593-73.3029127M4926.6731974,143.7054806c-33.2341966-1.9649926-58.6935497-30.3292956-57.6683759-63.56337,1.9648296-30.3292956,25.3738351-55.7033792,56.7287201-57.6683759h0c31.2688455.93978,56.7287201,26.3993023,56.7287201,58.6935905v1.9649926c0,33.2340744-23.4945235,60.5731628-55.7035462,60.5731628"/>
    <path class="st2" d="M3857.2880681,30.3337275c-98.7624125-36.138849-230.6735035,12.7297601-244.3430966,112.4319669-12.7296766,94.8324436,43.9987828,148.570818,165.2305449,173.0051276,125.1616822,24.4343097,110.4669152,133.9615039,79.197809,171.040135-50.8337097,58.6935823-128.0664283,64.5031398-189.6649849,42.9736089-124.1365083-32.2942801-217.9438269-151.4755967-193.5093869-301.0716537C3498.5481363,76.297562,3624.649735.9442149,3752.7161633,1.9694305c-11.7045027-.9397809-24.4341793-1.9649965-36.1389427-1.9649965-183.7699745-.9397809-332.3406621,147.6310481-333.365836,331.4009412-.9396558,183.7699094,147.6310318,332.3407273,331.4010064,333.3659012,183.7699745.9397862,332.3406621-147.6310318,333.365836-331.4009412.9396558-130.0315187-74.3282332-248.2730329-190.6046407-303.0366463"/>
    <path class="st0" d="M1704.3354992,850.5062109l61.4275205,224.6076525c.6834927,4.1862787-1.0251739,5.553264-4.528025,5.553264h-44.6822755c-3.1610396,0-3.5028512-1.3669854-4.528025-5.553264l-19.9062846-72.5339834h-93.4655071l-20.2479658,72.5339834c-1.0251739,4.1862787-1.3669854,5.553264-4.8698365,5.553264h-44.2550762c-3.8445323,0-5.2115177-1.3669854-4.528025-5.553264l62.4526943-224.6076525c10.4230354-38.0183847,17.4286073-41.8629822,57.9246693-41.8629822s48.7832316,3.8445323,59.2916547,41.8629822h-.0855181ZM1636.3294756,864.7737786l-25.4594835,92.4402681h69.0311974l-25.1178023-92.4402681c-2.4775469-8.3726225-2.8193585-10.0812891-9.7395427-10.0812891-5.8950104,0-6.6638908,1.7086665-8.7143689,10.0812891Z"/>
    <path class="st0" d="M2059.3162864,957.555793l-.3416812,117.5580704c0,3.8445323-1.7086665,5.553264-5.2115177,5.553264h-41.1795547c-3.5028512,0-5.2115177-1.7086665-5.2115177-5.553264v-94.4906809c0-49.8938584-5.2115177-52.2860176-33.1486785-52.2860176-9.3978615,0-19.5644731.6834927-28.278842,2.0504129,3.1610396,9.3977964,4.528025,21.2732048,4.528025,36.9932108l-.3416812,107.7330748c0,3.8445323-1.3669854,5.553264-4.8698365,5.553264h-41.5212358c-3.5028512,0-4.8698365-1.7086665-4.8698365-5.553264v-106.3660894c-.3416812-38.7018774-6.6638908-40.4959968-33.4903597-40.4959968h-23.750817v146.8621514c0,3.8445323-1.7086665,5.553264-5.2115177,5.553264h-41.1795547c-3.5028512,0-5.2115177-1.7086665-5.2115177-5.553264v-180.3525111c0-3.8445323,1.3669854-4.528025,4.528025-5.2115177,19.222792-4.1862787,48.8686193-5.8950104,66.9807194-5.8950104,26.8264689,0,49.552112,4.8697714,62.4526943,11.1919158,19.222792-7.3473835,42.8882212-11.5336621,60.6586401-11.5336621,54.4218182,0,74.6699144,15.3782596,74.6699144,74.2427151l.0001304-.0000652Z"/>
    <path class="st0" d="M2274.5262729,980.2813709c0,80.2231132-17.0869262,102.1798108-80.5647944,102.1798108-14.6093792,0-27.9371608-.3417463-42.8882212-2.0504129v65.1865999c0,3.5028512-1.7086665,5.2115177-5.2115177,5.2115177h-41.1795547c-3.5028512,0-5.2115177-1.7086665-5.2115177-5.2115177v-246.5643501c0-4.8697714,2.8193585-7.6891298,7.3473835-8.7143037,28.6206535-4.528025,52.6277639-6.6638908,76.7202621-6.6638908,73.5592224,0,91.0732175,20.9314585,91.0732175,96.6265467h-.0852573ZM2151.0731269,928.251712v107.0495821c10.0812239,1.3669854,22.2984439,2.0504129,31.3544939,2.0504129,35.1991566,0,40.496062-9.3977964,40.496062-54.4218834,0-41.1794895-2.8192281-54.7635645-36.9932108-54.7635645h-34.8573451v.0854529Z"/>
    <path class="st0" d="M2356.4580527,810.6936416c3.5028512,0,5.2113873,2.0504129,5.2113873,5.553264v69.0311974c12.9007127-1.3669854,27.1681501-1.7086665,36.9930805-1.7086665,66.6389078,0,84.0676455,12.5589012,84.0676455,83.7259644v107.7330748c0,3.8445323-1.7087969,5.553264-5.2113873,5.553264h-41.5211055c-3.5028512,0-4.8698365-1.7086665-4.8698365-5.553264v-94.4906809c0-49.8938584-5.5531989-52.2860176-37.6767035-52.2860176h-31.3546243v146.8621514c0,3.8445323-1.7087969,5.553264-5.2113873,5.553264h-41.862917c-3.5028512,0-4.8698365-1.7086665-4.8698365-5.553264v-258.7815049c0-3.5028512,1.7087969-5.553264,5.2113873-5.553264h41.1795547l-.0852573-.0855181Z"/>
    <path class="st0" d="M2690.5927691,980.6231173v10.7647817c0,7.0056371-2.0503477,9.3977964-11.1919158,9.3977964h-109.5272594c.6833623,31.3544939,9.05605,36.9932108,39.3852397,36.9932108h61.769332c3.5028512,0,5.2113873,1.7086665,5.2113873,5.2115177v28.9623347c0,3.8445323-1.7087969,5.2115177-4.8698365,5.553264-18.4539116,3.8445323-43.5717139,4.8697714-66.6389078,4.8697714-70.4835705,0-87.5704967-19.9062846-87.5704967-99.3604523s17.0869262-99.4459052,87.5704967-99.4459052,85.4346309,19.222792,85.7764424,96.9682931l.0855181.0853877ZM2569.6173004,966.9535893h69.0310671c-.3418115-30.6710012-8.3726877-38.7018774-33.8320408-38.7018774s-34.8572147,8.0308762-35.1990262,38.7018774Z"/>
    <path class="st0" d="M2896.0632129,967.2953357v107.7330748c0,3.8445323-2.0503477,5.553264-5.5531989,5.553264h-41.1795547c-3.5028512,0-5.2113873-1.7086665-5.2113873-5.553264v-94.4906809c0-49.8937932-5.2113873-52.2860176-37.334892-52.2860176h-31.6961751v146.8621514c0,3.8445323-1.7087969,5.553264-5.2113873,5.553264h-41.5211055c-3.5028512,0-5.2113873-1.7086665-5.2113873-5.553264v-180.3525111c0-4.1862787,1.7087969-4.528025,5.2113873-5.2115177,23.4090054-5.2115177,57.1557889-5.8950104,83.3842832-5.8950104,66.9807194,0,84.4094571,12.5589012,84.4094571,83.7259644l-.0860395-.0854529Z"/>
    <path class="st0" d="M3108.4535802,983.0152765c0,79.5396205-16.4035639,99.3604523-88.9374821,99.3604523s-88.9374821-19.9062846-88.9374821-99.3604523,16.7451147-99.4459052,88.9374821-99.4459052,88.9374821,19.5645383,88.9374821,99.4459052ZM2982.5230177,983.0152765c0,43.9133951,5.2113873,54.7636297,36.9930805,54.7636297s37.334892-10.7647817,37.334892-54.7636297-5.2113873-54.7636297-37.334892-54.7636297-36.9930805,10.8501694-36.9930805,54.7636297Z"/>
    <path class="st0" d="M3190.7271715,810.6936416c3.5028512,0,5.2113873,1.7086665,5.2113873,5.2115177v259.1232512c0,3.8445323-1.7087969,5.553264-5.2113873,5.553264h-41.1795547c-3.5028512,0-5.2113873-1.7086665-5.2113873-5.553264v-259.1232512c0-3.5028512,1.7087969-5.2115177,5.2113873-5.2115177h41.1795547Z"/>
    <path class="st1" d="M1225.4743668,943.6299064v120.6337223c0,5.553264-1.3669854,8.7143037-7.6890646,10.8501694-24.4343097,5.553264-55.1053109,7.3473835-79.1979394,7.3473835-52.2860176,0-79.8813669-5.553264-80.5648596-60.3168286.6834927-47.0744999,25.1178023-57.1557889,71.5088095-57.1557889h44.2550762v-12.5589012c0-16.7451798-10.4230354-24.0925633-32.806867-24.0925633h-63.136187c-3.8445323,0-4.8697714-1.025239-4.8697714-5.2115177v-28.6205883c0-4.1862787,1.3669854-4.8697714,4.8697714-5.553264,21.27327-4.1862787,41.5212358-5.2115177,63.136187-5.2115177,69.0311974,0,84.4094571,22.2984439,84.4094571,59.9750822l.0853877-.0853877ZM1133.7175263,998.3935361c-18.1121,0-24.4343097,5.8950104-24.4343097,20.9314585,0,16.7451798,7.6890646,21.2732048,29.6458274,21.2732048,7.0057023,0,24.7759908-.6834927,34.8573451-3.5028512v-38.7018774s-40.0688628,0-40.0688628.0000652Z"/>
    <path class="st1" d="M1438.5483572,967.2953357v107.7330748c0,3.8445323-2.0504781,5.553264-5.5531989,5.553264h-41.1795547c-3.5028512,0-5.2115177-1.7086665-5.2115177-5.553264v-94.4906809c0-49.8937932-5.2115177-52.2860176-37.334892-52.2860176h-31.6963054v146.8621514c0,3.8445323-1.7086665,5.553264-5.2115177,5.553264h-41.5212358c-3.5028512,0-5.2115177-1.7086665-5.2115177-5.553264v-180.3525111c0-4.1862787,1.7086665-4.528025,5.2115177-5.2115177,23.4091358-5.2115177,57.1557889-5.8950104,83.3841528-5.8950104,66.9807194,0,84.4094571,12.5589012,84.4094571,83.7259644l-.0853877-.0854529Z"/>
    <path class="st1" d="M3449.16693,888.1828492c3.8446627.6834927,5.8950104,2.4776121,5.8950104,7.0056371v27.5099616c0,3.8445323-2.0503477,5.553264-5.8950104,5.553264h-56.8139774c-32.1235047,0-36.9930805,10.8501694-36.9930805,54.7635645s4.8698365,54.7636297,36.9930805,54.7636297h56.8139774c3.8446627,0,5.8950104,1.7086665,5.8950104,5.2115177v27.9370956c0,4.1862787-2.0503477,5.8950104-5.8950104,6.6638908-18.7957231,4.1862787-43.9135254,4.8697714-56.8139774,4.8697714-74.2427151,0-88.5956706-19.9062846-88.5956706-99.3604523s14.2676981-99.4459052,88.5956706-99.4459052c12.9007127,0,38.0185151.6834927,56.8139774,4.528025Z"/>
    <path class="st1" d="M3659.7632431,983.0152765c0,79.5396205-16.4035639,99.3604523-88.9374821,99.3604523s-88.9374821-19.9062846-88.9374821-99.3604523,16.7451147-99.4459052,88.9374821-99.4459052,88.9374821,19.5645383,88.9374821,99.4459052ZM3533.9181986,983.0152765c0,43.9133951,5.2113873,54.7636297,36.9930805,54.7636297s37.334892-10.7647817,37.334892-54.7636297-5.2113873-54.7636297-37.334892-54.7636297-36.9930805,10.8501694-36.9930805,54.7636297Z"/>
    <path class="st1" d="M3964.5939437,957.555793l-.3418115,117.5580704c0,3.8445323-1.7087969,5.553264-5.2113873,5.553264h-41.1795547c-3.5028512,0-5.2113873-1.7086665-5.2113873-5.553264v-94.4906809c0-49.8938584-5.2113873-52.2860176-33.1486785-52.2860176-9.3978615,0-19.5646035.6834927-28.278842,2.0504129,3.1610396,9.3977964,4.528025,21.2732048,4.528025,36.9932108l-.3418115,107.7330748c0,3.8445323-1.3669854,5.553264-4.8698365,5.553264h-41.5211055c-3.5028512,0-4.8698365-1.7086665-4.8698365-5.553264v-106.3660894c-.3418115-38.7018774-6.6638908-40.4959968-33.49049-40.4959968h-23.750817v146.8621514c0,3.8445323-1.7087969,5.553264-5.2113873,5.553264h-41.1795547c-3.5028512,0-5.2113873-1.7086665-5.2113873-5.553264v-180.3525111c0-3.8445323,1.3669854-4.528025,4.528025-5.2115177,19.222792-4.1862787,48.8686193-5.8950104,66.9807194-5.8950104,26.8265993,0,49.5519816,4.8697714,62.4526943,11.1919158,19.222792-7.3473835,42.8880909-11.5336621,60.6586401-11.5336621,54.4218182,0,74.669784,15.3782596,74.669784,74.2426499Z"/>
    <path class="st1" d="M4179.8037998,980.2813709c0,80.2231132-17.0869262,102.1798108-80.5647944,102.1798108-14.6092489,0-27.9370305-.3417463-42.8880909-2.0504129v65.1865999c0,3.5028512-1.7087969,5.2115177-5.2113873,5.2115177h-41.1795547c-3.5028512,0-5.2113873-1.7086665-5.2113873-5.2115177v-246.5643501c0-4.8697714,2.8192281-7.6891298,7.3472531-8.7143037,28.6206535-4.528025,52.6277639-6.6638908,76.7203924-6.6638908,73.5590921,0,91.0733479,20.9314585,91.0733479,96.6265467h-.0857788ZM4056.3509146,928.251712v107.0495821c10.0812239,1.3669854,22.2983135,2.0504129,31.3546243,2.0504129,35.1990262,0,40.4959316-9.3977964,40.4959316-54.4218834,0-41.1794895-2.8192281-54.7635645-36.9930805-54.7635645h-34.8572147l-.0002607.0854529Z"/>
    <path class="st1" d="M4371.9464621,943.6299064v120.6337223c0,5.553264-1.3669854,8.7143037-7.6890646,10.8501694-24.4341793,5.553264-55.1054412,7.3473835-79.197809,7.3473835-52.2859524,0-79.8814321-5.553264-80.5647944-60.3168286.6833623-47.0744999,25.1178023-57.1557889,71.5087444-57.1557889h44.2550762v-12.5589012c0-16.7451798-10.4230354-24.0925633-32.806867-24.0925633h-63.1363174c-3.8446627,0-4.8698365-1.025239-4.8698365-5.2115177v-28.6205883c0-4.1862787,1.3669854-4.8697714,4.8698365-5.553264,21.2731397-4.1862787,41.5211055-5.2115177,63.1363174-5.2115177,69.0310671,0,84.4094571,22.2984439,84.4094571,59.9750822l.0852573-.0853877ZM4280.2750092,998.3935361c-18.1121,0-24.4341793,5.8950104-24.4341793,20.9314585,0,16.7451798,7.6890646,21.2732048,29.6458274,21.2732048,7.0057023,0,24.7759908-.6834927,34.8572147-3.5028512v-38.7018774s-40.0688628,0-40.0688628.0000652Z"/>
    <path class="st1" d="M4585.0201917,967.2953357v107.7330748c0,3.8445323-2.0503477,5.553264-5.5534596,5.553264h-41.1795547c-3.5025904,0-5.2113873-1.7086665-5.2113873-5.553264v-94.4906809c0-49.8937932-5.2113873-52.2860176-37.334892-52.2860176h-31.6964358v146.8621514c0,3.8445323-1.7087969,5.553264-5.2113873,5.553264h-41.5211055c-3.5025904,0-5.2113873-1.7086665-5.2113873-5.553264v-180.3525111c0-4.1862787,1.7087969-4.528025,5.2113873-5.2115177,23.4090054-5.2115177,57.1557889-5.8950104,83.3842832-5.8950104,66.9809801,0,84.4094571,12.5589012,84.4094571,83.7259644l-.0855181-.0854529Z"/>
    <path class="st1" d="M4795.3602113,885.3634907c3.5025904,0,5.2113873,1.7086665,5.2113873,5.2115177v185.9057751c-.3415508,52.2859524-10.4227747,76.3785809-85.4346309,76.3785809-25.1178023,0-45.707319-1.3669854-65.5282159-4.8698365-3.1610396-.3416812-4.8698365-1.7086665-4.8698365-5.5531989v-26.4847877c0-3.8445323,1.3667247-5.2115177,4.8698365-5.2115177h61.0004516c30.6712619,0,38.0185151-7.0057023,38.0185151-29.9875737v-2.0504129c-15.0365785,2.8193585-27.9372912,3.8445323-42.5462793,3.8445323-63.4778682,0-82.2735913-24.4343097-82.2735913-89.9626559v-101.8380644c0-3.5028512,1.7087969-5.2115177,5.2113873-5.2115177h41.5211055c3.5025904,0,5.2113873,1.7086665,5.2113873,5.2115177v92.0985217c0,45.0240218,6.6641515,54.7636297,41.8631777,54.7636297,8.7144992,0,21.2731397-.3417463,31.0128127-2.0504129v-144.7262856c0-3.5028512,1.7087969-5.2115177,5.2113873-5.2115177h41.5211055v-.2562935Z"/>
  </g>
</svg>