<?xml version="1.0" encoding="UTF-8"?><svg id="b" xmlns="http://www.w3.org/2000/svg" viewBox="0 0 240.485 14.784"><g id="c"><polygon points="30.65 2.634 36.042 2.634 36.042 3.877 32.123 3.877 32.123 7.121 35.88 7.121 35.88 8.337 32.123 8.337 32.123 12.824 30.65 12.824 30.65 2.634" fill="#140700"/><path d="M41.948,13c-3.054,0-3.892-2.068-3.892-4.676V2.634h1.486v5.555c0,2.095.5,3.608,2.474,3.608,2,0,2.473-1.513,2.473-3.608V2.634h1.5v5.69c0,2.784-1.217,4.676-4.041,4.676" fill="#140700"/><path d="M52.867,7.689v.027c.675.23,1.067.676,1.405,1.405l1.73,3.703h-1.649l-1.446-3.257c-.459-1.04-.838-1.297-2.324-1.297h-.433v4.554h-1.486V2.635h2.554c2.432,0,3.946.675,3.946,2.676,0,1.378-.932,2.094-2.297,2.378M50.853,3.878h-.703v3.162h.703c1.797,0,2.811-.446,2.811-1.621,0-1.298-1.014-1.541-2.811-1.541" fill="#140700"/><path d="M61.569,13c-3.054,0-3.892-2.068-3.892-4.676V2.634h1.486v5.555c0,2.095.5,3.608,2.474,3.608,2,0,2.473-1.513,2.473-3.608V2.634h1.5v5.69c0,2.784-1.217,4.676-4.041,4.676" fill="#140700"/><path d="M71.312,9.527c-.338-.365-.906-1.027-1.554-1.798h-.027v5.095h-1.446V2.635h1.446v4.581h.027c.648-.73,1.608-1.73,1.932-2.081l2.406-2.5h1.959l-4.865,4.784,5.284,5.405h-2.121l-3.041-3.297Z" fill="#140700"/><path d="M84.394,10.257h-4.933l-1.041,2.567h-1.581l4.338-10.189h1.514l4.406,10.189h-1.636l-1.067-2.567ZM81.907,3.878h-.027c-.162.513-.5,1.405-.676,1.851l-1.284,3.339h3.987l-1.338-3.339c-.176-.418-.5-1.338-.662-1.851" fill="#140700"/><path d="M96.664,12.824l-1.933-7.379c-.094-.432-.31-1.243-.405-1.73h-.027c-.095.487-.27,1.257-.379,1.73l-1.905,7.379h-1.878l-3.095-10.19h1.594l1.906,6.839c.095.31.419,1.608.527,2.216h.027c.122-.608.446-1.892.527-2.216l1.703-6.839h2.095l1.743,6.839c.081.351.392,1.608.5,2.216h.04c.122-.608.433-1.838.528-2.216l1.905-6.839h1.527l-3.148,10.19h-1.852Z" fill="#140700"/><path d="M109.164,10.257h-4.933l-1.041,2.567h-1.581l4.338-10.189h1.514l4.406,10.189h-1.636l-1.067-2.567ZM106.677,3.878h-.027c-.162.513-.5,1.405-.676,1.851l-1.284,3.339h3.987l-1.338-3.339c-.176-.418-.5-1.338-.662-1.851" fill="#140700"/><polygon points="116.946 2.634 122.608 2.634 122.608 3.877 118.419 3.877 118.419 6.945 122.311 6.945 122.311 8.161 118.419 8.161 118.419 11.567 122.717 11.567 122.717 12.824 116.946 12.824 116.946 2.634" fill="#140700"/><polygon points="125.149 2.634 126.635 2.634 126.635 11.567 130.892 11.567 130.892 12.824 125.149 12.824 125.149 2.634" fill="#140700"/><polygon points="132.568 2.634 138.23 2.634 138.23 3.877 134.041 3.877 134.041 6.945 137.933 6.945 137.933 8.161 134.041 8.161 134.041 11.567 138.339 11.567 138.339 12.824 132.568 12.824 132.568 2.634" fill="#140700"/><path d="M145.636,12.932c-3.203,0-5.514-1.865-5.514-5.257,0-3.027,2.338-5.136,5.42-5.136.81,0,1.594.082,2.283.392l-.121,1.365c-.608-.338-1.338-.513-2.162-.513-2.284,0-3.866,1.621-3.866,3.892,0,2.392,1.663,3.946,3.96,3.946.716,0,1.379-.081,2.162-.432l.108,1.378c-.594.243-1.486.365-2.27.365" fill="#140700"/><polygon points="151.676 3.891 148.514 3.932 148.514 2.634 156.257 2.634 156.257 3.932 153.176 3.891 153.176 12.824 151.676 12.824 151.676 3.891" fill="#140700"/><path d="M162.068,7.689v.027c.675.23,1.067.676,1.405,1.405l1.73,3.703h-1.649l-1.446-3.257c-.459-1.04-.838-1.297-2.324-1.297h-.433v4.554h-1.486V2.635h2.554c2.432,0,3.946.675,3.946,2.676,0,1.378-.932,2.094-2.297,2.378M160.054,3.878h-.703v3.162h.703c1.797,0,2.811-.446,2.811-1.621,0-1.298-1.014-1.541-2.811-1.541" fill="#140700"/><rect x="166.986" y="2.635" width="1.486" height="10.19" fill="#140700"/><path d="M176.149,12.932c-3.203,0-5.514-1.865-5.514-5.257,0-3.027,2.338-5.136,5.42-5.136.81,0,1.594.082,2.283.392l-.121,1.365c-.608-.338-1.338-.513-2.162-.513-2.284,0-3.866,1.621-3.866,3.892,0,2.392,1.663,3.946,3.96,3.946.716,0,1.379-.081,2.162-.432l.108,1.378c-.594.243-1.486.365-2.27.365" fill="#140700"/><path d="M188.595,12.932c-3.203,0-5.514-1.865-5.514-5.257,0-3.027,2.338-5.136,5.419-5.136.811,0,1.595.082,2.284.392l-.121,1.365c-.608-.338-1.338-.513-2.163-.513-2.283,0-3.865,1.621-3.865,3.892,0,2.392,1.663,3.946,3.96,3.946.716,0,1.379-.081,2.162-.432l.108,1.378c-.594.243-1.486.365-2.27.365" fill="#140700"/><path d="M196.852,13c-2.987,0-4.947-2.055-4.947-5.258,0-3.243,1.987-5.284,5.068-5.284,2.879,0,4.811,2.081,4.811,5.217,0,3.284-1.919,5.325-4.932,5.325M196.865,3.634c-2,0-3.379,1.662-3.379,4.068,0,2.487,1.338,4.095,3.379,4.095,1.973,0,3.338-1.636,3.338-4.068,0-2.514-1.298-4.095-3.338-4.095" fill="#140700"/><rect x="203.229" y="11.189" width="1.635" height="1.635" fill="#140700"/><polygon points="207.202 11.189 208.729 11.189 207.459 14.784 206.283 14.784 207.202 11.189" fill="#140700"/><polygon points="214.202 2.634 215.688 2.634 215.688 11.567 219.945 11.567 219.945 12.824 214.202 12.824 214.202 2.634" fill="#140700"/><polygon points="222.851 3.891 219.689 3.932 219.689 2.634 227.432 2.634 227.432 3.932 224.351 3.891 224.351 12.824 222.851 12.824 222.851 3.891" fill="#140700"/><path d="M231.257,12.824h-2.217V2.635h2.217c3.446,0,6.149,1.378,6.149,5.135,0,3.568-2.784,5.054-6.149,5.054M231.081,3.878h-.554v7.69h.554c2.757,0,4.784-.933,4.784-3.838,0-3.068-2.027-3.852-4.784-3.852" fill="#140700"/><rect x="238.85" y="11.189" width="1.635" height="1.635" fill="#140700"/><polygon points="13.09 0 0 10.288 5.297 10.288 13.09 2.626 20.883 10.288 26.18 10.288 13.09 0" fill="#0065b7"/><path d="M19.856,10.373l-.99-.927-1.582.842h-8.39l-1.582-.842-.99.927c-.366.369-.125,1.021.026,1.358.156.345.313.819.623,1.498.311.679.96.65,1.443.395,1.496-.509,3.295-.847,4.675-.848,1.381.001,3.179.339,4.675.848.482.255,1.132.284,1.442-.395.311-.679.468-1.153.624-1.498.152-.337.392-.989.026-1.358" fill="#0065b7"/></g></svg>