<?xml version="1.0" encoding="UTF-8"?><svg id="b" xmlns="http://www.w3.org/2000/svg" viewBox="0 0 205.823 72.4"><g id="c"><path d="M144.519,61.342v11.058s.583-.051.777-.068c2.151-.189,3.175-.805,3.175-2.222v-11.058s-.583.051-.777.068c-2.151.189-3.175.805-3.175,2.222" fill="#0065b7"/><path d="M96.938,69.125v-6.799c0-.639.462-.877,1.432-.877h3.709c1.829,0,2.699-.448,2.699-1.652v-.551h-8.488c-2.151,0-3.175,1.285-3.175,2.592v7.775c0,1.307,1.024,2.592,3.175,2.592h6.048c1.829,0,2.699-.448,2.699-1.653v-.55h-6.667c-.97,0-1.432-.238-1.432-.877" fill="#0065b7"/><path d="M158.114,69.125v-6.799c0-.639.462-.877,1.432-.877h3.839c1.828,0,2.698-.448,2.698-1.652v-.551h-8.617c-2.151,0-3.175,1.285-3.175,2.592v7.775c0,1.307,1.024,2.592,3.175,2.592h6.048c1.829,0,2.699-.448,2.699-1.653v-.55h-6.667c-.97,0-1.432-.238-1.432-.877" fill="#0065b7"/><path d="M46.931,69.125v-2.298h4.493c1.829,0,2.699-.448,2.699-1.652v-.551h-7.192v-2.298c0-.639.462-.877,1.432-.877h3.709c1.829,0,2.699-.448,2.699-1.652v-.551h-8.488c-2.151,0-3.175,1.285-3.175,2.592v7.775c0,1.307,1.024,2.592,3.175,2.592h6.437c1.828,0,2.699-.448,2.699-1.653v-.55h-7.056c-.97,0-1.432-.238-1.432-.877" fill="#0065b7"/><path d="M64.179,69.125v-10.073l-.842.074c-2.151.188-3.175.804-3.175,2.221v8.266c0,1.307,1.024,2.592,3.175,2.592h6.437c1.828,0,2.698-.448,2.698-1.653v-.55h-6.861c-.97,0-1.432-.238-1.432-.877" fill="#0065b7"/><path d="M79.885,69.125v-2.298h4.493c1.829,0,2.699-.448,2.699-1.652v-.551h-7.192v-2.298c0-.639.462-.877,1.432-.877h3.709c1.829,0,2.699-.448,2.699-1.652v-.551h-8.488c-2.151,0-3.175,1.285-3.175,2.592v7.775c0,1.307,1.024,2.592,3.175,2.592h6.437c1.828,0,2.699-.448,2.699-1.653v-.55h-7.056c-.97,0-1.432-.238-1.432-.877" fill="#0065b7"/><path d="M107.945,60.899v.551h5.054v10.95l.842-.074c2.151-.188,3.175-.805,3.175-2.222v-8.654h2.485c1.828,0,2.698-.448,2.698-1.653v-.55h-11.555c-1.829,0-2.699.448-2.699,1.652" fill="#0065b7"/><path d="M135.577,67.021c2.15,0,3.225-1.284,3.242-2.591.009-.648.009-1.944,0-2.592-.017-1.307-1.092-2.592-3.242-2.592h-9.71v13.153s.444-.039.596-.052c2.151-.188,3.175-.805,3.175-2.222v-3.104h1.167l2.539,3.37c.997,1.322,2.323,1.814,4.33,1.814h2.091l-4.667-5.184h.479ZM129.638,61.19h3.863c.97,0,1.439.238,1.444.877.003.533.003,1.6,0,2.134-.005.639-.474.877-1.444.877h-3.863v-3.888Z" fill="#0065b7"/><path d="M174.15,30.314v13.433c0,1.065-.77,1.461-2.387,1.461h-2.343v-16.701c0-1.065-.769-1.448-2.386-1.441-.254.002-.772.002-1.026,0-1.617-.007-2.387.376-2.387,1.441v16.701h-2.3c-1.617,0-2.386-.396-2.386-1.461v-13.437c0-2.361-1.707-3.389-5.292-3.702-.232-.021-.928-.082-.928-.082v17.602c0,2.179,1.706,4.32,5.291,4.32h17.116c3.585,0,5.291-2.141,5.291-4.32v-17.602s-.729.064-.972.085c-3.585.314-5.291,1.342-5.291,3.703" fill="#0065b7"/><path d="M.648,31.17v17.71l1.62-.142c3.585-.314,5.291-1.341,5.291-3.703v-4.794h9.325c3.047,0,4.497-.747,4.497-2.754v-.918H7.559v-3.938c0-1.065.77-1.461,2.387-1.461h8.304c3.585,0,5.291-.878,5.291-3.24v-1.079H5.939c-3.585,0-5.291,2.141-5.291,4.319" fill="#0065b7"/><path d="M82.049,48.448h15.874v-21.921s-.891.078-1.188.104c-3.585.313-5.291,1.341-5.291,3.702v14.875h-5.864c-1.617,0-2.386-.396-2.386-1.461v-17.22s-.864.075-1.145.1c-3.585.314-5.291,1.341-5.291,3.702v13.8c0,2.178,1.706,4.319,5.291,4.319" fill="#0065b7"/><path d="M46.931,26.527s-.891.078-1.188.104c-3.585.314-5.291,1.341-5.291,3.702v14.876h-5.864c-1.617,0-2.386-.397-2.386-1.461v-17.221s-.864.076-1.145.1c-3.585.314-5.291,1.341-5.291,3.703v13.799c0,2.178,1.706,4.319,5.291,4.319h15.874v-21.921Z" fill="#0065b7"/><path d="M200.531,26.85c-2.645-.034-7.937-.034-10.582,0-3.586.047-5.292,2.28-5.292,4.458v17.464s.832-.073,1.102-.097c3.585-.313,5.291-1.341,5.291-3.702v-3.004h8.337v3c0,2.361,1.706,3.389,5.291,3.703.286.025,1.145.1,1.145.1v-17.464c0-2.178-1.706-4.411-5.292-4.458M191.05,38.729v-7.147c0-1.065.77-1.481,2.386-1.492.897-.006,2.668-.006,3.564,0,1.617.011,2.387.427,2.387,1.492v7.147h-8.337Z" fill="#0065b7"/><path d="M143.179,26.85c-2.645-.034-7.937-.034-10.582,0-3.586.047-5.292,2.28-5.292,4.458v17.464s.832-.073,1.102-.097c3.585-.313,5.291-1.341,5.291-3.702v-3.004h8.337v3c0,2.361,1.706,3.389,5.291,3.703.286.025,1.145.1,1.145.1v-17.464c0-2.178-1.706-4.411-5.292-4.458M133.699,38.729v-7.147c0-1.065.77-1.481,2.386-1.492.897-.006,2.668-.006,3.564,0,1.617.011,2.387.427,2.387,1.492v7.147h-8.337Z" fill="#0065b7"/><path d="M115.739,37.161c1.983-2.363,8.651-10.31,8.651-10.31h-2.541c-3.107,0-5.16.761-6.702,2.807l-4.801,6.372h-1.614v-9.503s-.81.071-1.08.094c-3.585.314-5.291,1.342-5.291,3.703v18.448s.81-.071,1.08-.094c3.585-.314,5.291-1.342,5.291-3.703v-5.706h1.614l4.639,6.156c1.66,2.203,3.871,3.023,7.217,3.023h3.7l-10.163-11.287Z" fill="#0065b7"/><path d="M67.66,39.809c3.584,0,5.375-2.141,5.404-4.32.014-1.079.014-3.239,0-4.319-.029-2.179-1.82-4.32-5.404-4.32h-16.183v21.922s.74-.065.994-.087c3.585-.314,5.291-1.342,5.291-3.703v-5.173h1.945l4.232,5.615c1.661,2.204,3.871,3.024,7.217,3.024h3.484l-7.778-8.639h.798ZM57.762,30.09h6.439c1.617,0,2.398.396,2.405,1.461.006.889.006,2.668,0,3.557-.007,1.065-.788,1.461-2.405,1.461h-6.439v-6.479Z" fill="#0065b7"/><path d="M11.193,12.408h-1.784l-1.162-2.888H2.866l-1.146,2.888H0L4.729.953h1.655l4.809,11.455ZM6.257,4.432c-.191-.476-.557-1.51-.732-2.084h-.032c-.175.574-.541,1.575-.733,2.084l-1.401,3.758h4.347l-1.449-3.758Z" fill="#616161"/><rect x="13.566" width="1.528" height="12.408" fill="#616161"/><rect x="18.66" width="1.528" height="12.408" fill="#616161"/><path d="M31.492,4.087h2.181v1.231h-2.181v3.676c0,1.33.175,2.249,1.401,2.249.318,0,.589-.066.876-.197l.047,1.231c-.366.148-.827.23-1.289.23-2.054,0-2.531-1.281-2.531-3.086v-4.103h-1.863v-1.231h1.863v-1.969l1.496-.526v2.495Z" fill="#616161"/><path d="M44.069,8.272c0,2.56-1.719,4.333-4.171,4.333-2.404,0-4.171-1.805-4.171-4.333,0-2.626,1.735-4.431,4.219-4.431,2.404,0,4.123,1.838,4.123,4.431M37.335,8.272c0,1.838,1.051,3.036,2.595,3.036,1.481,0,2.563-1.214,2.563-3.036,0-1.871-1.082-3.135-2.611-3.135-1.48,0-2.547,1.28-2.547,3.135" fill="#616161"/><path d="M53.479,10.964c0,.525-.032,1.116-.064,1.444h-1.353c.064-.705.08-1.641.08-2.527V.001h1.48v3.216c0,.821-.016,1.642-.048,2.167h.032c.573-.969,1.576-1.543,2.77-1.543,2.102,0,3.471,1.855,3.471,4.3,0,2.544-1.385,4.464-3.598,4.464-1.242,0-2.197-.673-2.738-1.641h-.032ZM53.638,8.256c0,1.69,1.019,3.053,2.356,3.053,1.385,0,2.277-1.346,2.277-3.069,0-1.806-.828-3.102-2.261-3.102-1.337,0-2.372,1.378-2.372,3.118" fill="#616161"/><path d="M64.241,5.449c.462-.952,1.242-1.608,2.277-1.608.318,0,.573.032.78.114v1.461c-.191-.082-.462-.131-.812-.131-1.401,0-2.245,1.198-2.245,3.332v3.791h-1.512v-5.892c0-.886-.017-1.773-.08-2.478h1.497c.047.426.063.984.063,1.411h.032Z" fill="#616161"/><path d="M71.39,2.528h-1.688V.805h1.688v1.723ZM71.311,12.408h-1.528V4.038h1.528v8.37Z" fill="#616161"/><path d="M81.929,4.038v8.026c0,2.035-.971,3.988-3.964,3.988-1.115,0-2.038-.148-3.105-.558l.159-1.543c1.019.558,1.895.788,2.898.788,1.783,0,2.547-1.067,2.547-2.839,0-.279,0-.722.032-1.018h-.032c-.493.854-1.353,1.527-2.643,1.527-2.133,0-3.598-1.658-3.598-4.153,0-2.626,1.497-4.415,3.71-4.415,1.194,0,2.101.558,2.595,1.461h.032c-.032-.525-.032-.837-.032-1.264h1.401ZM75.847,8.207c0,1.74.876,2.938,2.245,2.938,1.353,0,2.356-1.28,2.356-2.987s-1.003-3.02-2.356-3.02c-1.29,0-2.245,1.313-2.245,3.069" fill="#616161"/><path d="M86.977,3.217c0,.821-.016,1.723-.048,2.166h.032c.573-.919,1.513-1.542,2.691-1.542,2.292,0,3.041,1.559,3.041,3.775v4.792h-1.513v-4.136c0-1.641-.175-3.135-1.895-3.135-.796,0-1.512.476-1.926,1.198-.255.46-.382,1.084-.382,2.068v4.005h-1.512V0h1.512v3.217Z" fill="#616161"/><path d="M98.074,4.087h2.181v1.231h-2.181v3.676c0,1.33.175,2.249,1.401,2.249.318,0,.589-.066.875-.197l.048,1.231c-.366.148-.828.23-1.289.23-2.054,0-2.532-1.281-2.532-3.086v-4.103h-1.862v-1.231h1.862v-1.969l1.497-.526v2.495Z" fill="#616161"/><path d="M103.981,8.6c.063,1.691,1.178,2.692,2.818,2.692.939,0,1.639-.23,2.372-.624l.048,1.428c-.733.345-1.545.509-2.516.509-2.707,0-4.251-1.691-4.251-4.448,0-2.642,1.56-4.316,3.869-4.316,2.133,0,3.487,1.329,3.487,4.152,0,.164-.016.427-.032.607h-5.795ZM108.327,7.402c0-1.608-.86-2.38-2.054-2.38s-2.133.886-2.261,2.38h4.315Z" fill="#616161"/><path d="M114.17,5.384c.605-.952,1.529-1.543,2.707-1.543,2.292,0,3.024,1.559,3.024,3.775v4.793h-1.512v-4.136c0-1.642-.159-3.135-1.879-3.135-.796,0-1.528.476-1.942,1.198-.255.46-.382,1.083-.382,2.068v4.005h-1.512v-5.892c0-.887-.016-1.773-.08-2.479h1.481c.031.361.063.903.063,1.346h.032Z" fill="#616161"/><path d="M130.935,4.087h2.181v1.231h-2.181v3.676c0,1.33.175,2.249,1.401,2.249.318,0,.589-.066.875-.197l.048,1.231c-.366.148-.828.23-1.289.23-2.054,0-2.532-1.281-2.532-3.086v-4.103h-1.862v-1.231h1.862v-1.969l1.497-.526v2.495Z" fill="#616161"/><path d="M137.398,3.217c0,.821-.016,1.723-.048,2.166h.032c.573-.919,1.513-1.542,2.691-1.542,2.292,0,3.041,1.559,3.041,3.775v4.792h-1.513v-4.136c0-1.641-.175-3.135-1.894-3.135-.796,0-1.513.476-1.927,1.198-.255.46-.382,1.084-.382,2.068v4.005h-1.512V0h1.512v3.217Z" fill="#616161"/><path d="M147.413,8.6c.063,1.691,1.178,2.692,2.817,2.692.94,0,1.64-.23,2.373-.624l.048,1.428c-.733.345-1.545.509-2.516.509-2.707,0-4.251-1.691-4.251-4.448,0-2.642,1.56-4.316,3.869-4.316,2.133,0,3.487,1.329,3.487,4.152,0,.164-.016.427-.032.607h-5.795ZM151.759,7.402c0-1.608-.86-2.38-2.054-2.38s-2.133.886-2.261,2.38h4.315Z" fill="#616161"/><path d="M162.713,12.408l-2.579-8.37h1.639l1.37,5.071c.143.525.35,1.494.478,2.052h.031c.128-.558.398-1.527.542-2.035l1.544-5.088h1.862l1.529,5.088c.159.525.398,1.477.525,2.035h.032c.112-.558.35-1.543.494-2.019l1.433-5.104h1.496l-2.627,8.37h-1.751l-1.608-5.383c-.096-.345-.366-1.363-.462-1.855h-.032c-.095.492-.366,1.477-.477,1.855l-1.624,5.383h-1.815Z" fill="#616161"/><path d="M183.06,8.272c0,2.56-1.72,4.333-4.172,4.333-2.404,0-4.171-1.805-4.171-4.333,0-2.626,1.735-4.431,4.219-4.431,2.404,0,4.124,1.838,4.124,4.431M176.325,8.272c0,1.838,1.051,3.036,2.595,3.036,1.481,0,2.564-1.214,2.564-3.036,0-1.871-1.083-3.135-2.612-3.135-1.48,0-2.547,1.28-2.547,3.135" fill="#616161"/><path d="M187.471,5.449c.461-.952,1.242-1.608,2.277-1.608.318,0,.573.032.78.114v1.461c-.191-.082-.462-.131-.812-.131-1.401,0-2.245,1.198-2.245,3.332v3.791h-1.513v-5.892c0-.886-.015-1.773-.079-2.478h1.496c.048.426.064.984.064,1.411h.032Z" fill="#616161"/><rect x="192.98" width="1.528" height="12.408" fill="#616161"/><path d="M205.095,9.881c0,.886.016,1.822.079,2.527h-1.385c-.032-.443-.048-.902-.048-1.444h-.031c-.621,1.05-1.497,1.641-2.755,1.641-2.181,0-3.566-1.723-3.566-4.333s1.449-4.431,3.582-4.431c1.194,0,2.149.558,2.643,1.461h.032c-.032-.525-.048-1.264-.048-2.085V.001h1.497v9.88ZM198.997,8.256c0,1.74.923,3.053,2.276,3.053s2.373-1.363,2.373-3.053c0-1.773-1.003-3.118-2.373-3.118-1.321,0-2.276,1.345-2.276,3.118" fill="#616161"/></g></svg>